<?xml version="1.0" standalone="no"?>
<!DOCTYPE svg PUBLIC "-//W3C//DTD SVG 20010904//EN"
 "http://www.w3.org/TR/2001/REC-SVG-20010904/DTD/svg10.dtd">
<svg version="1.0" xmlns="http://www.w3.org/2000/svg"
 width="512.000000pt" height="512.000000pt" viewBox="0 0 512.000000 512.000000"
 preserveAspectRatio="xMidYMid meet">

<g transform="translate(0.000000,512.000000) scale(0.100000,-0.100000)"
fill="#fff" stroke="none">
<path d="M985 5108 c-41 -23 -44 -38 -45 -185 l0 -143 -221 0 c-223 0 -249 -4
-276 -39 -10 -12 -12 -531 -13 -2348 0 -1282 3 -2339 6 -2348 18 -47 -59 -45
1869 -45 1354 0 1812 3 1828 12 45 23 46 32 47 271 l0 227 214 0 c217 0 258 5
282 38 11 14 13 330 14 1672 l0 1655 -623 622 -622 623 -1220 0 c-899 -1
-1225 -4 -1240 -12z m2345 -727 l0 -570 24 -28 24 -28 571 -3 571 -3 0 -1534
0 -1535 -1705 0 -1705 0 0 2135 0 2135 1110 0 1110 0 0 -569z m620 -6 l445
-445 -448 0 -447 0 0 445 c0 245 1 445 3 445 1 0 202 -200 447 -445z m-3010
-1784 l0 -2020 24 -28 24 -28 1511 -3 1511 -2 0 -170 0 -170 -1705 0 -1705 0
0 2220 0 2220 170 0 170 0 0 -2019z"/>
<path d="M1489 4337 c-36 -28 -39 -51 -39 -332 l0 -277 29 -29 29 -29 285 0
284 0 27 25 26 24 0 291 0 291 -25 24 -24 25 -288 0 c-211 -1 -292 -4 -304
-13z m471 -327 l0 -170 -170 0 -170 0 0 170 0 170 170 0 170 0 0 -170z"/>
<path d="M1500 3488 c-53 -28 -62 -97 -18 -138 19 -18 35 -20 140 -20 113 0
120 1 143 25 34 33 34 83 -1 116 -23 22 -35 24 -132 27 -74 2 -115 -1 -132
-10z"/>
<path d="M2012 3490 c-31 -13 -55 -71 -43 -104 23 -59 -44 -56 1107 -56 l1051
0 27 26 c33 34 34 74 2 111 l-24 28 -1049 2 c-626 1 -1057 -2 -1071 -7z"/>
<path d="M1502 2976 c-55 -25 -66 -92 -22 -136 18 -18 34 -20 140 -20 115 0
122 1 145 25 32 31 32 75 1 112 -23 26 -28 28 -127 30 -76 3 -113 -1 -137 -11z"/>
<path d="M2014 2976 c-20 -9 -35 -25 -42 -45 -13 -36 -8 -56 21 -88 l20 -23
1059 0 1059 0 24 25 c32 31 32 75 1 112 l-24 28 -1044 2 c-863 2 -1048 0
-1074 -11z"/>
<path d="M1480 2450 c-28 -28 -34 -63 -16 -98 22 -43 68 -55 183 -50 89 4 97
6 119 32 31 36 31 80 -1 111 -23 24 -30 25 -145 25 -106 0 -122 -2 -140 -20z"/>
<path d="M1998 2456 c-54 -41 -37 -127 29 -146 27 -8 334 -10 1071 -8 l1034 3
24 28 c31 37 31 81 -1 112 l-24 25 -1058 0 c-852 -1 -1061 -3 -1075 -14z"/>
<path d="M1482 1940 c-29 -27 -37 -63 -20 -96 21 -46 51 -55 170 -52 97 3 109
5 132 27 35 33 35 83 1 116 -23 24 -30 25 -143 25 -105 0 -121 -2 -140 -20z"/>
<path d="M1993 1938 c-11 -13 -23 -31 -26 -41 -11 -29 17 -82 49 -95 22 -9
284 -12 1072 -10 l1044 3 24 28 c31 36 31 77 -1 111 l-24 26 -1059 0 -1059 0
-20 -22z"/>
<path d="M1479 1421 c-17 -18 -29 -40 -29 -56 0 -16 12 -38 29 -56 29 -28 32
-29 136 -29 106 0 138 8 162 39 22 28 15 76 -13 105 -26 25 -31 26 -141 26
-113 0 -115 0 -144 -29z"/>
<path d="M1994 1426 c-21 -18 -28 -32 -28 -61 0 -29 7 -43 28 -61 l27 -24
1045 0 c1078 0 1071 0 1101 39 16 21 16 71 0 92 -30 39 -23 39 -1101 39
l-1045 0 -27 -24z"/>
</g>
</svg>
